<svg width="24" height="27" viewBox="0 0 24 27" fill="none" xmlns="http://www.w3.org/2000/svg">
    <path
        d="M2.75578 22.902C2.60813 22.8454 2.48004 22.739 2.38937 22.5975C2.2987 22.4561 2.24998 22.2867 2.25 22.1129C2.25 18.3005 2.93813 15.2517 4.29609 13.0503C5.93672 10.3905 8.52469 8.95835 12 8.7805V4.58948C12 4.42608 12.0431 4.26629 12.124 4.12991C12.2049 3.99354 12.32 3.88659 12.4551 3.82233C12.5901 3.75808 12.7391 3.73934 12.8836 3.76845C13.0281 3.79755 13.1618 3.87322 13.268 3.98606L21.518 12.7478C21.5913 12.8257 21.6496 12.9193 21.6895 13.0231C21.7294 13.1268 21.7499 13.2384 21.7499 13.3512C21.7499 13.464 21.7294 13.5756 21.6895 13.6793C21.6496 13.7831 21.5913 13.8767 21.518 13.9546L13.268 22.7163C13.1618 22.8292 13.0281 22.9049 12.8836 22.934C12.7391 22.9631 12.5901 22.9443 12.4551 22.8801C12.32 22.8158 12.2049 22.7089 12.124 22.5725C12.0431 22.4361 12 22.2763 12 22.1129V17.9527C9.89062 18.0236 8.29687 18.4038 7.02797 19.1334C5.65687 19.922 4.66266 21.1001 3.59109 22.6277C3.49496 22.7646 3.3628 22.8648 3.21306 22.9141C3.06331 22.9635 2.90345 22.9596 2.75578 22.9031V22.902Z"
        fill="#B1B1B1" />
</svg>