<svg width="24" height="27" viewBox="0 0 24 27" fill="none" xmlns="http://www.w3.org/2000/svg">
    <path
        d="M1.503 7.76289C1.54107 6.79634 1.91297 5.88343 2.54119 5.21448C3.1694 4.54554 4.00543 4.17218 4.875 4.17225H19.125C19.9946 4.17218 20.8306 4.54554 21.4588 5.21448C22.087 5.88343 22.4589 6.79634 22.497 7.76289L21.39 8.44714L12 14.0722L2.61 8.44714L1.503 7.76289ZM1.5 9.66961V18.7751C1.5 19.771 1.85558 20.7261 2.48851 21.4303C3.12145 22.1345 3.97989 22.5302 4.875 22.5302H19.125C20.0201 22.5302 20.8785 22.1345 21.5115 21.4303C22.1444 20.7261 22.5 19.771 22.5 18.7751V9.66961L22.1055 9.9141L12.3555 15.7553C12.2462 15.8207 12.1241 15.8549 12 15.8549C11.8759 15.8549 11.7538 15.8207 11.6445 15.7553L1.8855 9.90826L1.5 9.66961Z"
        fill="#B1B1B1" />
</svg>