<svg width="24" height="28" viewBox="0 0 24 28" fill="none" xmlns="http://www.w3.org/2000/svg">
    <path
        d="M12 18.756C13.0609 18.756 14.0783 18.2871 14.8284 17.4525C15.5786 16.6179 16 15.4859 16 14.3056C16 13.1253 15.5786 11.9933 14.8284 11.1587C14.0783 10.3241 13.0609 9.85519 12 9.85519C10.9391 9.85519 9.92172 10.3241 9.17157 11.1587C8.42143 11.9933 8 13.1253 8 14.3056C8 15.4859 8.42143 16.6179 9.17157 17.4525C9.92172 18.2871 10.9391 18.756 12 18.756Z"
        stroke="#232323" stroke-width="1.5" stroke-linecap="round" stroke-linejoin="round" />
    <path
        d="M3 18.756V9.85519C3 8.37979 3.52678 6.96482 4.46447 5.92156C5.40215 4.87829 6.67392 4.29219 8 4.29219H16C17.3261 4.29219 18.5979 4.87829 19.5355 5.92156C20.4732 6.96482 21 8.37979 21 9.85519V18.756C21 20.2314 20.4732 21.6464 19.5355 22.6896C18.5979 23.7329 17.3261 24.319 16 24.319H8C6.67392 24.319 5.40215 23.7329 4.46447 22.6896C3.52678 21.6464 3 20.2314 3 18.756Z"
        stroke="#232323" stroke-width="1.5" />
    <path d="M17.5 8.19718L17.51 8.18518" stroke="#232323" stroke-width="1.5" stroke-linecap="round"
        stroke-linejoin="round" />
</svg>