<svg width="24" height="27" viewBox="0 0 24 27" fill="none" xmlns="http://www.w3.org/2000/svg">
    <path
        d="M12 12.7949C11.337 12.7949 10.7011 12.5019 10.2322 11.9802C9.76339 11.4586 9.5 10.7511 9.5 10.0134C9.5 9.27571 9.76339 8.56822 10.2322 8.04659C10.7011 7.52496 11.337 7.23191 12 7.23191C12.663 7.23191 13.2989 7.52496 13.7678 8.04659C14.2366 8.56822 14.5 9.27571 14.5 10.0134C14.5 10.3787 14.4353 10.7404 14.3097 11.0778C14.1841 11.4153 13.9999 11.7219 13.7678 11.9802C13.5356 12.2385 13.26 12.4434 12.9567 12.5832C12.6534 12.723 12.3283 12.7949 12 12.7949ZM12 2.2252C10.1435 2.2252 8.36301 3.04574 7.05025 4.50632C5.7375 5.96689 5 7.94785 5 10.0134C5 15.8546 12 24.4772 12 24.4772C12 24.4772 19 15.8546 19 10.0134C19 7.94785 18.2625 5.96689 16.9497 4.50632C15.637 3.04574 13.8565 2.2252 12 2.2252Z"
        fill="#B1B1B1" />
</svg>