<svg width="24" height="28" viewBox="0 0 24 28" fill="none" xmlns="http://www.w3.org/2000/svg">
    <path
        d="M21.7388 18.6482C21.5716 20.0616 20.9477 21.3589 19.9837 22.2979C19.0196 23.2369 17.7813 23.7534 16.5 23.7508C9.05626 23.7508 3.00001 17.0126 3.00001 8.73073C2.99771 7.30516 3.4619 5.92741 4.30588 4.8548C5.14986 3.7822 6.31592 3.08808 7.58626 2.90209C7.9075 2.85845 8.2328 2.93157 8.51362 3.11054C8.79444 3.2895 9.0157 3.56471 9.14438 3.89509L11.1244 8.81313V8.82565C11.2229 9.07854 11.2636 9.35465 11.2428 9.6293C11.222 9.90396 11.1404 10.1686 11.0053 10.3996C10.9884 10.4278 10.9706 10.4539 10.9519 10.4799L9.00001 13.0542C9.7022 14.6418 11.1947 16.2877 12.6403 17.0711L14.9222 14.9109C14.9446 14.8899 14.9681 14.8704 14.9925 14.8525C15.2 14.6985 15.4387 14.6045 15.687 14.579C15.9353 14.5535 16.1854 14.5973 16.4147 14.7064L16.4269 14.7127L20.8434 16.9146C21.1409 17.0573 21.3889 17.3032 21.5503 17.6157C21.7116 17.9282 21.7778 18.2904 21.7388 18.6482Z"
        fill="#B1B1B1" />
</svg>