<svg width="24" height="28" viewBox="0 0 24 28" fill="none" xmlns="http://www.w3.org/2000/svg">
    <path
        d="M22.46 7.62999C21.69 8.0194 20.86 8.2753 20 8.39769C20.88 7.80801 21.56 6.87343 21.88 5.7497C21.05 6.306 20.13 6.69541 19.16 6.91793C18.37 5.96109 17.26 5.40479 16 5.40479C13.65 5.40479 11.73 7.54099 11.73 10.1778C11.73 10.5561 11.77 10.9233 11.84 11.2682C8.28004 11.0679 5.11004 9.16538 3.00004 6.28375C2.63004 6.98469 2.42004 7.80801 2.42004 8.67584C2.42004 10.3336 3.17004 11.8022 4.33004 12.6367C3.62004 12.6367 2.96004 12.4142 2.38004 12.0804V12.1138C2.38004 14.428 3.86004 16.3639 5.82004 16.7978C5.19077 16.9894 4.53013 17.0161 3.89004 16.8757C4.16165 17.8242 4.69358 18.6541 5.41106 19.2488C6.12854 19.8435 6.99549 20.1731 7.89004 20.1913C6.37367 21.5269 4.49404 22.2488 2.56004 22.2384C2.22004 22.2384 1.88004 22.2162 1.54004 22.1717C3.44004 23.5291 5.70004 24.319 8.12004 24.319C16 24.319 20.33 17.0426 20.33 10.7341C20.33 10.5228 20.33 10.3225 20.32 10.1111C21.16 9.44353 21.88 8.59796 22.46 7.62999Z"
        fill="#232323" />
</svg>