<svg width="24" height="24" viewBox="0 0 24 24" fill="none" xmlns="http://www.w3.org/2000/svg">
    <g clip-path="url(#clip0_15788_479)">
        <path
            d="M23.3393 6.66109L21.1784 8.82202C20.958 9.04233 20.6018 9.04233 20.3815 8.82202L15.1784 3.6189C14.958 3.39858 14.958 3.04233 15.1784 2.82202L17.3393 0.661084C18.2159 -0.215479 19.6409 -0.215479 20.5221 0.661084L23.3393 3.47827C24.2205 4.35483 24.2205 5.77983 23.3393 6.66109ZM13.3221 4.67827L1.01273 16.9876L0.0189821 22.683C-0.116955 23.4517 0.553357 24.1173 1.32211 23.9861L7.01742 22.9876L19.3268 10.6783C19.5471 10.458 19.5471 10.1017 19.3268 9.8814L14.1237 4.67827C13.8987 4.45796 13.5424 4.45796 13.3221 4.67827ZM5.81742 15.933C5.55961 15.6751 5.55961 15.2626 5.81742 15.0048L13.0362 7.78609C13.294 7.52827 13.7065 7.52827 13.9643 7.78609C14.2221 8.0439 14.2221 8.4564 13.9643 8.71421L6.74554 15.933C6.48773 16.1908 6.07523 16.1908 5.81742 15.933ZM4.12523 19.8751H6.37523V21.5767L3.35179 22.1064L1.89398 20.6486L2.42367 17.6251H4.12523V19.8751Z"
            fill="#232323" />
    </g>
    <defs>
        <clipPath id="clip0_15788_479">
            <rect width="24" height="24" fill="white" />
        </clipPath>
    </defs>
</svg>  