<svg width="24" height="24" viewBox="0 0 24 24" fill="none" xmlns="http://www.w3.org/2000/svg">
    <path
        d="M3.1 1.27514e-07C2.27783 1.27514e-07 1.48933 0.326606 0.907969 0.907969C0.326606 1.48933 0 2.27783 0 3.1V18.6C0 19.4222 0.326606 20.2107 0.907969 20.792C1.48933 21.3734 2.27783 21.7 3.1 21.7V13.175C3.1 12.5584 3.34495 11.967 3.78098 11.531C4.217 11.095 4.80837 10.85 5.425 10.85H15.4132L17.2096 9.052C17.7862 8.47601 18.5099 8.06947 19.3018 7.87677C20.0937 7.68406 20.9232 7.7126 21.7 7.95925V5.611C21.6998 4.7889 21.3731 4.00053 20.7917 3.4193L18.2792 0.90675C17.6977 0.325916 16.9093 -0.000235436 16.0874 1.27514e-07H15.5V5.425C15.5 6.04163 15.255 6.633 14.819 7.06902C14.383 7.50505 13.7916 7.75 13.175 7.75H6.975C6.35837 7.75 5.767 7.50505 5.33098 7.06902C4.89495 6.633 4.65 6.04163 4.65 5.425V1.27514e-07H3.1ZM13.8632 12.4L9.7247 16.5385C9.08983 17.1736 8.63929 17.9691 8.42115 18.8402L7.8399 21.1621C7.79501 21.3384 7.76698 21.5185 7.7562 21.7H4.65V13.175C4.65 12.9695 4.73165 12.7723 4.87699 12.627C5.02233 12.4817 5.21946 12.4 5.425 12.4H13.8632ZM6.2 1.27514e-07H13.95V5.425C13.95 5.63054 13.8683 5.82767 13.723 5.97301C13.5777 6.11835 13.3805 6.2 13.175 6.2H6.975C6.76946 6.2 6.57233 6.11835 6.42699 5.97301C6.28165 5.82767 6.2 5.63054 6.2 5.425V1.27514e-07ZM18.3055 10.1494L10.819 17.6359C10.3827 18.072 10.073 18.6185 9.9231 19.2169L9.34185 21.5388C9.28453 21.7697 9.28791 22.0116 9.35167 22.2408C9.41543 22.47 9.53739 22.6789 9.70572 22.847C9.87404 23.0152 10.083 23.137 10.3123 23.2005C10.5416 23.2641 10.7834 23.2672 11.0143 23.2097L13.3362 22.63C13.9347 22.4803 14.4812 22.1706 14.9172 21.7341L22.4037 14.2476C22.9402 13.7025 23.2395 12.9674 23.2364 12.2026C23.2333 11.4378 22.928 10.7052 22.3871 10.1644C21.8462 9.62372 21.1135 9.31871 20.3486 9.3159C19.5838 9.31308 18.8488 9.61268 18.304 10.1494"
        fill="black" />
</svg>