<svg width="20" height="20" viewBox="0 0 20 20" fill="none" xmlns="http://www.w3.org/2000/svg">
    <g clip-path="url(#clip0_15812_636)">
        <path
            d="M18.7938 10.4424C18.4726 10.4039 18.181 10.6334 18.1426 10.9548C17.661 14.9894 14.2248 18.0321 10.1497 18.0321C6.48442 18.0321 3.33673 15.5708 2.38994 12.1403L3.09092 12.5253C3.37457 12.6811 3.73086 12.5774 3.8865 12.2938C4.04229 12.0102 3.93868 11.6539 3.65503 11.4981L1.85696 10.5106C1.57361 10.3549 1.21762 10.4582 1.06168 10.7414L0.0727752 12.5372C-0.0833198 12.8207 0.0199806 13.177 0.303332 13.3331C0.595991 13.47 0.930459 13.4027 1.09922 13.1026L1.3284 12.6865C2.48943 16.495 6.0349 19.204 10.1497 19.204C14.8179 19.204 18.7543 15.7173 19.306 11.0936C19.3445 10.7723 19.115 10.4807 18.7938 10.4424V10.4424Z"
            fill="#16DBCC" />
        <path
            d="M19.6455 5.78496C19.3486 5.65694 19.0037 5.79381 18.8755 6.09104L18.6909 6.51889C18.114 5.10824 17.1881 3.8459 15.9955 2.86859C14.3535 1.52263 12.2774 0.781525 10.1496 0.781525C8.02183 0.781525 5.94575 1.52263 4.30362 2.86859C2.68423 4.19578 1.55571 6.04817 1.12603 8.08427C1.05919 8.40088 1.26183 8.7117 1.57844 8.77853C1.8946 8.84537 2.20587 8.64289 2.27255 8.32627C2.64746 6.55002 3.63255 4.93368 5.04641 3.7748C6.47949 2.60019 8.2919 1.95338 10.1496 1.95338C12.0072 1.95338 13.8196 2.60019 15.2527 3.7748C16.3542 4.67749 17.1953 5.85805 17.6906 7.17547L16.9487 6.85641C16.6515 6.7287 16.3068 6.86587 16.1789 7.16311C16.051 7.46035 16.1884 7.80489 16.4856 7.93275L18.3703 8.74344C18.6911 8.87604 19.0034 8.74054 19.14 8.4372L19.9516 6.5549C20.0797 6.25782 19.9427 5.91313 19.6455 5.78496V5.78496Z"
            fill="#16DBCC" />
        <path
            d="M13.7609 5.68228C13.929 5.34308 13.9548 4.95857 13.8338 4.59984C13.7128 4.24111 13.4594 3.95105 13.1202 3.7829C12.4198 3.43592 11.5679 3.72339 11.2208 4.4236C11.1449 4.5768 11.0983 4.73915 11.0809 4.90425C10.6283 4.86259 10.1682 4.90471 9.72239 5.03303C8.83495 5.28815 8.08011 5.86218 7.59702 6.64906L6.01487 9.22593C5.80353 9.18809 5.58503 9.2038 5.37599 9.2743C5.049 9.38462 4.78457 9.61563 4.63153 9.92462L4.52716 10.135C4.211 10.7731 4.47284 11.5497 5.1111 11.8658L8.53604 13.5629C8.19882 14.2645 8.34988 15.0529 9.22511 15.4932C9.99246 15.8085 10.8466 15.4996 11.1784 14.8722L11.5404 15.0515C11.7214 15.1412 11.9164 15.1865 12.1126 15.1865C12.2516 15.1865 12.3913 15.1638 12.5268 15.118C12.8536 15.0079 13.118 14.7768 13.2712 14.4677L13.3754 14.2573C13.5286 13.9481 13.5523 13.598 13.442 13.271C13.3715 13.0619 13.2515 12.8785 13.0935 12.7333L14.1854 9.91363C14.5188 9.05244 14.5181 8.10412 14.1837 7.24354C14.0157 6.81111 13.7705 6.41957 13.4633 6.08465C13.584 5.97082 13.685 5.83548 13.7609 5.68228V5.68228ZM12.4898 4.80522C12.6258 4.80522 12.736 4.91539 12.736 5.05119C12.736 5.18714 12.6258 5.29716 12.4898 5.29716C12.354 5.29716 12.2439 5.18699 12.2439 5.05119C12.2439 4.91539 12.354 4.80522 12.4898 4.80522ZM9.97751 14.4589C9.90061 14.4849 9.81821 14.4793 9.74543 14.4433C9.67264 14.4073 9.61832 14.345 9.59238 14.2681C9.57209 14.208 9.57133 14.1444 9.58918 14.0849L10.1254 14.3505C10.0886 14.4007 10.0376 14.4387 9.97751 14.4589ZM13.0925 9.49051L11.9031 12.5618C11.7358 12.9412 11.8958 13.3904 12.271 13.5766H12.2712C12.3324 13.6093 12.3548 13.6764 12.3255 13.7371L12.2211 13.9475C12.1862 14.0086 12.1239 14.0286 12.0608 14.0016L5.63142 10.8159C5.57221 10.7866 5.5478 10.7146 5.5771 10.6555L5.68147 10.4451C5.70969 10.3931 5.76447 10.3561 5.84199 10.3909C6.0289 10.4835 6.24069 10.4977 6.43844 10.4312C6.62505 10.3682 6.7781 10.2402 6.87255 10.0688L8.59554 7.2623C8.92528 6.7252 9.44056 6.33336 10.0463 6.15911C10.6519 5.98486 11.2966 6.04299 11.8612 6.32284C11.8613 6.32284 11.8613 6.32284 11.8615 6.32299C11.8616 6.32299 11.8616 6.32299 11.8618 6.32314C12.4265 6.60298 12.8632 7.08058 13.0915 7.66803C13.3197 8.25548 13.32 8.90275 13.0925 9.49051V9.49051Z"
            fill="#16DBCC" />
    </g>
    <defs>
        <clipPath id="clip0_15812_636">
            <rect width="20" height="20" fill="white" />
        </clipPath>
    </defs>
</svg>