<svg width="17" height="18" viewBox="0 0 17 18" fill="none" xmlns="http://www.w3.org/2000/svg">
    <path
        d="M15.3983 12.6227C15.2799 13.5754 14.838 14.45 14.1551 15.083C13.4722 15.7159 12.5951 16.0641 11.6875 16.0624C6.41484 16.0624 2.125 11.5202 2.125 5.93736C2.12337 4.97639 2.45217 4.04765 3.04999 3.32461C3.64781 2.60157 4.47377 2.13367 5.37359 2.0083C5.60114 1.97888 5.83156 2.02817 6.03047 2.14881C6.22939 2.26945 6.38611 2.45497 6.47726 2.67767L7.87976 5.9929V6.00134C7.94955 6.17182 7.97837 6.35794 7.96365 6.54308C7.94894 6.72823 7.89114 6.90663 7.79543 7.06236C7.78347 7.08134 7.77086 7.09892 7.75758 7.1165L6.375 8.85181C6.87238 9.92197 7.92957 11.0315 8.95355 11.5595L10.5699 10.1034C10.5858 10.0892 10.6024 10.0761 10.6197 10.064C10.7666 9.96022 10.9357 9.89687 11.1116 9.87968C11.2875 9.8625 11.4647 9.89201 11.6271 9.96556L11.6357 9.96978L14.7641 11.4541C14.9748 11.5502 15.1504 11.716 15.2648 11.9267C15.3791 12.1373 15.4259 12.3815 15.3983 12.6227Z"
        fill="black" />
</svg>