<svg width="60" height="60" viewBox="0 0 60 60" fill="none" xmlns="http://www.w3.org/2000/svg">
    <rect width="60" height="60" rx="30" fill="#F5F7FA" />
    <path
        d="M39.4555 37.4547C38.2004 35.3401 36.2406 33.6924 33.8916 32.7769C35.0598 31.9358 35.9226 30.7632 36.358 29.4252C36.7934 28.0872 36.7792 26.6516 36.3174 25.3218C35.8557 23.9919 34.9698 22.8353 33.7852 22.0156C32.6007 21.196 31.1775 20.7549 29.7173 20.7549C28.2571 20.7549 26.834 21.196 25.6494 22.0156C24.4648 22.8353 23.5789 23.9919 23.1172 25.3218C22.6554 26.6516 22.6413 28.0872 23.0766 29.4252C23.512 30.7632 24.3749 31.9358 25.543 32.7769C23.194 33.6924 21.2342 35.3401 19.9792 37.4547C19.9014 37.5748 19.8496 37.7086 19.8267 37.8483C19.8039 37.9879 19.8106 38.1306 19.8463 38.2677C19.8821 38.4048 19.9462 38.5337 20.0349 38.6465C20.1235 38.7594 20.2349 38.854 20.3624 38.9247C20.4899 38.9955 20.631 39.0409 20.7771 39.0582C20.9232 39.0756 21.0715 39.0645 21.2132 39.0258C21.3548 38.987 21.4868 38.9213 21.6015 38.8326C21.7161 38.7439 21.811 38.6339 21.8805 38.5093C23.5392 35.7569 26.4685 34.1153 29.7173 34.1153C32.9661 34.1153 35.8954 35.7578 37.5542 38.5093C37.7048 38.7417 37.9436 38.9089 38.2203 38.9753C38.4969 39.0418 38.7896 39.0024 39.0365 38.8655C39.2834 38.7285 39.4652 38.5047 39.5434 38.2415C39.6216 37.9782 39.5901 37.6961 39.4555 37.4547ZM24.9572 27.4364C24.9572 26.5326 25.2364 25.6491 25.7594 24.8976C26.2825 24.1461 27.0259 23.5604 27.8957 23.2145C28.7655 22.8687 29.7226 22.7782 30.646 22.9545C31.5694 23.1308 32.4175 23.566 33.0833 24.2051C33.749 24.8442 34.2023 25.6585 34.386 26.5449C34.5697 27.4314 34.4754 28.3502 34.1151 29.1852C33.7548 30.0202 33.1447 30.7339 32.3619 31.236C31.5791 31.7382 30.6588 32.0062 29.7173 32.0062C28.4553 32.0048 27.2454 31.5229 26.353 30.6662C25.4606 29.8095 24.9586 28.648 24.9572 27.4364Z"
        fill="#B1B1B1" />
</svg>