<svg width="24" height="27" viewBox="0 0 24 27" fill="none" xmlns="http://www.w3.org/2000/svg">
    <path
        d="M21.7388 18.2619C21.5716 19.6753 20.9477 20.9727 19.9837 21.9117C19.0196 22.8507 17.7813 23.3672 16.5 23.3646C9.05626 23.3646 3.00001 16.6264 3.00001 8.3445C2.99771 6.91893 3.4619 5.54118 4.30588 4.46857C5.14986 3.39596 6.31592 2.70185 7.58626 2.51586C7.9075 2.47222 8.2328 2.54534 8.51362 2.72431C8.79444 2.90327 9.0157 3.17848 9.14438 3.50886L11.1244 8.4269V8.43942C11.2229 8.69231 11.2636 8.96842 11.2428 9.24307C11.222 9.51773 11.1404 9.78238 11.0053 10.0134C10.9884 10.0416 10.9706 10.0676 10.9519 10.0937L9.00001 12.668C9.7022 14.2555 11.1947 15.9015 12.6403 16.6848L14.9222 14.5246C14.9446 14.5037 14.9681 14.4842 14.9925 14.4662C15.2 14.3123 15.4387 14.2183 15.687 14.1928C15.9353 14.1673 16.1854 14.2111 16.4147 14.3202L16.4269 14.3265L20.8434 16.5284C21.1409 16.671 21.3889 16.917 21.5503 17.2295C21.7116 17.542 21.7778 17.9042 21.7388 18.2619Z"
        fill="white" />
</svg>