<svg width="250" height="250" viewBox="0 0 250 250" fill="none" xmlns="http://www.w3.org/2000/svg">
    <circle cx="125" cy="125" r="125" fill="white" />
    <path
        d="M106.28 178.28C105.64 178.36 104.96 178.4 104.24 178.4C103.6 178.4 102.96 178.4 102.32 178.4C98 178.4 93.48 177.96 88.76 177.08C84.04 176.28 79.36 175.2 74.72 173.84C70.16 172.48 65.88 171 61.88 169.4L51.8 165.32C51 165.72 50.2 166.08 49.4 166.4C48.68 166.72 47.88 167.04 47 167.36C44.36 168.24 41.28 168.68 37.76 168.68C36.48 168.68 35.24 168.56 34.04 168.32C32.84 168.16 31.84 167.88 31.04 167.48C30.16 167 29.44 166.32 28.88 165.44C28.4 164.48 28.16 163.56 28.16 162.68C28.16 161.8 28.4 161.08 28.88 160.52C29.2 160.2 29.52 160.04 29.84 160.04C30.16 159.96 30.24 160.12 30.08 160.52C29.84 161.8 30.36 162.96 31.64 164C33 164.96 34.24 165.6 35.36 165.92C36.4 166.24 37.68 166.4 39.2 166.4C41.44 166.4 43.56 166 45.56 165.2L48.32 164C46.48 163.2 44.6 162.48 42.68 161.84C40.76 161.12 39 160.48 37.4 159.92C36.2 159.52 34.64 159.12 32.72 158.72C30.88 158.24 29.4 158.12 28.28 158.36H28.16C27.92 158.36 27.76 158.24 27.68 158C27.6 157.76 27.72 157.52 28.04 157.28C28.44 156.96 29.24 156.8 30.44 156.8C31.72 156.8 33.12 157 34.64 157.4C36.16 157.72 37.28 157.96 38 158.12L51.44 161.84C53.36 160.24 55.24 158.36 57.08 156.2C58.92 154.04 60.64 151.72 62.24 149.24C65.12 144.84 67.92 139.8 70.64 134.12C73.44 128.36 76.32 122.52 79.28 116.6C82.32 110.6 85.64 105.16 89.24 100.28C91.08 97.72 93.24 95.2 95.72 92.72C98.2 90.24 100.92 88.24 103.88 86.72C105.64 85.84 107.44 85.12 109.28 84.56C111.12 84 113.04 83.72 115.04 83.72C119.2 83.72 122.36 84.8 124.52 86.96C126.68 89.12 127.76 91.84 127.76 95.12C127.76 95.92 127.68 96.76 127.52 97.64C127.44 98.52 127.24 99.4 126.92 100.28C125.72 104.2 123.52 107.56 120.32 110.36C117.12 113.08 113.6 115.12 109.76 116.48C109.28 116.64 109 116.72 108.92 116.72C108.52 116.72 108.32 116.56 108.32 116.24C108.32 115.76 108.64 115.4 109.28 115.16C112.88 113.8 116.12 111.68 119 108.8C121.96 105.92 123.8 102.52 124.52 98.6C124.6 98.12 124.64 97.68 124.64 97.28C124.72 96.8 124.76 96.4 124.76 96.08C124.76 92.8 123.6 90.4 121.28 88.88C119.04 87.28 116.44 86.48 113.48 86.48C110.44 86.48 107.64 87.2 105.08 88.64C102.28 90.24 99.52 92.92 96.8 96.68C94.16 100.36 91.56 104.64 89 109.52C86.52 114.32 84.08 119.28 81.68 124.4C79.36 129.44 77.08 134.2 74.84 138.68C72.68 143.16 70.56 146.88 68.48 149.84C66.72 152.4 64.76 154.8 62.6 157.04C60.44 159.28 58.12 161.28 55.64 163.04L63.2 165.2C68.8 166.8 74.88 168.32 81.44 169.76C88 171.28 94.24 172.04 100.16 172.04C102.88 172.04 105.48 171.84 107.96 171.44C110.44 171.04 112.68 170.36 114.68 169.4C117.96 167.88 120.6 165.8 122.6 163.16C124.6 160.52 125.6 157.72 125.6 154.76C125.6 152.68 125.04 150.64 123.92 148.64C122.88 146.64 121.2 144.76 118.88 143C117.6 142.04 116.28 141.2 114.92 140.48C113.56 139.68 112.32 139.08 111.2 138.68C110.64 138.44 110.36 138.2 110.36 137.96C110.36 137.8 110.48 137.68 110.72 137.6C111.04 137.52 111.24 137.48 111.32 137.48C114.04 138.12 116.76 139.36 119.48 141.2C123.64 144.16 126.44 147.6 127.88 151.52C128.68 153.6 129.08 155.76 129.08 158C129.08 161.2 128.28 164.24 126.68 167.12C125.08 170 122.88 172.32 120.08 174.08C116.08 176.48 111.48 177.88 106.28 178.28ZM128.86 177.92C127.98 177.92 126.7 177.8 125.02 177.56C123.34 177.32 121.82 176.8 120.46 176C119.02 175.2 118.3 173.92 118.3 172.16C118.3 171.2 118.54 170.44 119.02 169.88C119.34 169.48 119.66 169.28 119.98 169.28C120.3 169.28 120.42 169.48 120.34 169.88C120.02 171.08 120.46 172.2 121.66 173.24C122.78 174.36 123.9 175.08 125.02 175.4C126.3 175.72 127.66 175.88 129.1 175.88C132.22 175.88 135.1 175.08 137.74 173.48C140.46 171.88 142.86 169.88 144.94 167.48C141.98 165.4 139.34 162.8 137.02 159.68C134.78 156.56 133.66 153.04 133.66 149.12C133.66 147.92 133.78 146.72 134.02 145.52C134.9 141.2 137.1 137.84 140.62 135.44C142.46 134.16 144.54 133.52 146.86 133.52C148.38 133.52 149.74 133.8 150.94 134.36C152.22 134.84 153.1 135.44 153.58 136.16V136.28C153.58 136.6 153.42 136.92 153.1 137.24C152.78 137.48 152.54 137.52 152.38 137.36C151.82 136.32 150.74 135.8 149.14 135.8C148.26 135.8 147.3 136 146.26 136.4C145.22 136.72 144.26 137.32 143.38 138.2C142.34 139.08 141.5 140.2 140.86 141.56C140.22 142.84 139.7 144.2 139.3 145.64C138.82 147.32 138.58 148.96 138.58 150.56C138.58 153.76 139.34 156.64 140.86 159.2C142.38 161.76 144.26 163.96 146.5 165.8C149.38 162.2 152.06 158.12 154.54 153.56C157.1 149 159.42 144.56 161.5 140.24C163.66 135.84 165.58 132.16 167.26 129.2C173.5 118.24 179.5 109.76 185.26 103.76C191.1 97.68 196.5 94.64 201.46 94.64C202.5 94.64 203.5 94.76 204.46 95C204.78 95.08 204.86 95.28 204.7 95.6C204.54 95.92 204.3 96.04 203.98 95.96C203.66 95.88 203.34 95.84 203.02 95.84C202.78 95.76 202.5 95.72 202.18 95.72C199.78 95.72 197.18 96.92 194.38 99.32C191.58 101.64 188.7 104.88 185.74 109.04C182.78 113.12 179.82 117.84 176.86 123.2C177.9 122.56 179.1 122.12 180.46 121.88C181.9 121.56 183.38 121.4 184.9 121.4C187.22 121.4 189.54 121.64 191.86 122.12C194.26 122.6 196.26 123.16 197.86 123.8C201.46 121 204.34 117.52 206.5 113.36C208.74 109.2 209.86 105.2 209.86 101.36C209.86 97.52 208.86 94.44 206.86 92.12C204.86 89.8 202.34 88.04 199.3 86.84C196.26 85.64 193.06 84.84 189.7 84.44C186.34 84.04 183.26 83.84 180.46 83.84C175.98 83.84 171.5 84.32 167.02 85.28C162.62 86.24 158.54 87.64 154.78 89.48C151.02 91.24 147.82 93.4 145.18 95.96C143.02 98.04 140.98 100.8 139.06 104.24C137.14 107.68 136.18 111.16 136.18 114.68C136.18 116.12 136.42 117.52 136.9 118.88C137.7 121.12 139.14 122.88 141.22 124.16C143.3 125.36 145.7 125.96 148.42 125.96C149.46 125.96 150.54 125.84 151.66 125.6C152.78 125.36 153.9 125.08 155.02 124.76H155.26C155.5 124.76 155.62 124.88 155.62 125.12C155.62 125.44 155.42 125.68 155.02 125.84C152.86 126.56 150.62 126.92 148.3 126.92C145.58 126.92 143.02 126.4 140.62 125.36C138.22 124.24 136.26 122.6 134.74 120.44C133.22 118.28 132.46 115.6 132.46 112.4C132.46 109.92 132.78 107.64 133.42 105.56C134.14 103.48 135.1 101.52 136.3 99.68C138.94 95.76 142.66 92.52 147.46 89.96C152.26 87.4 157.58 85.48 163.42 84.2C169.26 82.92 175.06 82.28 180.82 82.28C183.54 82.28 186.66 82.48 190.18 82.88C193.78 83.28 197.34 84.04 200.86 85.16C204.38 86.2 207.46 87.72 210.1 89.72C212.82 91.72 214.7 94.28 215.74 97.4C216.22 98.92 216.46 100.56 216.46 102.32C216.46 105.52 215.66 108.76 214.06 112.04C212.46 115.24 210.46 118.04 208.06 120.44C206.22 122.44 203.98 124.2 201.34 125.72C205.1 127.56 207.9 130.08 209.74 133.28C211.58 136.4 212.5 139.76 212.5 143.36C212.5 147.12 211.54 150.88 209.62 154.64C207.7 158.4 204.86 161.8 201.1 164.84C197.42 167.88 192.82 170.2 187.3 171.8C184.74 172.52 181.98 173.08 179.02 173.48C176.14 173.88 173.18 174.08 170.14 174.08C167.02 174.08 163.9 173.84 160.78 173.36C157.66 172.88 154.66 172.12 151.78 171.08C151.3 170.92 150.78 170.72 150.22 170.48C149.66 170.24 149.14 169.96 148.66 169.64C144.34 173.48 139.66 176 134.62 177.2C132.7 177.68 130.78 177.92 128.86 177.92ZM181.78 130.28C184.34 130.28 186.78 129.88 189.1 129.08C191.5 128.2 193.74 127 195.82 125.48C194.3 124.52 192.58 123.88 190.66 123.56C188.74 123.16 186.54 122.96 184.06 122.96C181.74 122.96 179.9 123.44 178.54 124.4C177.18 125.36 176.5 126.36 176.5 127.4C176.5 128.2 176.9 128.88 177.7 129.44C178.58 130 179.94 130.28 181.78 130.28ZM186.7 169.52C190.78 167.76 194.18 165.44 196.9 162.56C199.7 159.6 201.82 156.36 203.26 152.84C204.7 149.32 205.42 145.88 205.42 142.52C205.42 139.48 204.82 136.64 203.62 134C202.5 131.36 200.74 129.16 198.34 127.4C195.86 128.6 193.14 129.6 190.18 130.4C187.3 131.2 184.34 131.6 181.3 131.6C179.06 131.6 177.38 131.32 176.26 130.76C175.14 130.12 174.38 129.48 173.98 128.84C172.94 130.84 171.94 132.92 170.98 135.08C170.02 137.24 169.02 139.4 167.98 141.56C165.9 145.88 163.38 150.44 160.42 155.24C157.54 160.04 154.14 164.32 150.22 168.08C150.7 168.4 151.18 168.64 151.66 168.8C152.14 169.04 152.62 169.24 153.1 169.4C155.74 170.36 158.54 171.08 161.5 171.56C164.46 172.04 167.42 172.28 170.38 172.28C173.5 172.28 176.46 172 179.26 171.44C182.14 170.96 184.62 170.32 186.7 169.52Z"
        fill="#0157AC" />
</svg>