<svg width="108" height="25" viewBox="0 0 108 25" fill="none" xmlns="http://www.w3.org/2000/svg">
    <path
        d="M0.176 24.32L0.368 22.848C1.2 22.72 1.76533 22.4747 2.064 22.112C2.384 21.728 2.544 21.0773 2.544 20.16L2.576 6.72C2.576 6.03733 2.50133 5.57867 2.352 5.344C2.20267 5.10933 1.88267 4.992 1.392 4.992C1.2 4.992 0.965333 5.00267 0.688 5.024C0.432 5.04533 0.304 5.056 0.304 5.056L0.24 4.928L0.464 3.52C0.464 3.52 0.677334 3.53067 1.104 3.552C1.53067 3.57333 2.02133 3.59467 2.576 3.616C3.152 3.616 3.64267 3.616 4.048 3.616C4.38933 3.616 4.752 3.60533 5.136 3.584C5.54133 3.54133 5.91467 3.50933 6.256 3.488C6.61867 3.44533 6.90667 3.41333 7.12 3.392C7.35467 3.34933 7.472 3.328 7.472 3.328L7.344 4.768C6.64 4.85333 6.14933 4.992 5.872 5.184C5.59467 5.376 5.43467 5.67467 5.392 6.08C5.34933 6.464 5.296 7.01867 5.232 7.744C5.14667 9.06667 5.072 10.5067 5.008 12.064C4.944 13.6 4.90133 15.0827 4.88 16.512C4.85867 17.92 4.848 19.1147 4.848 20.096C4.848 20.8213 4.90133 21.3653 5.008 21.728C5.136 22.0693 5.392 22.2933 5.776 22.4C6.18133 22.5067 6.77867 22.56 7.568 22.56C8.50667 22.56 9.264 22.5067 9.84 22.4C10.416 22.2933 10.8747 22.08 11.216 21.76C11.5787 21.44 11.8667 20.9813 12.08 20.384C12.2933 19.7867 12.4853 18.9973 12.656 18.016L14.064 17.856L14.16 18.016C14.16 18.016 14.1067 18.304 14 18.88C13.8933 19.456 13.7653 20.2027 13.616 21.12C13.488 22.0373 13.36 23.0293 13.232 24.096L13.072 24.288C13.072 24.288 12.7733 24.2667 12.176 24.224C11.5787 24.2027 10.8213 24.1707 9.904 24.128C8.98667 24.1067 8.03733 24.0747 7.056 24.032C6.096 24.0107 5.232 24 4.464 24C3.67467 24 2.94933 24.0213 2.288 24.064C1.648 24.128 1.136 24.1813 0.752 24.224C0.368 24.288 0.176 24.32 0.176 24.32ZM21.5788 24.384C20.3628 24.384 19.2854 24.0853 18.3468 23.488C17.4081 22.8907 16.6721 22.0587 16.1388 20.992C15.6268 19.904 15.3708 18.6667 15.3708 17.28C15.3708 15.744 15.6908 14.368 16.3307 13.152C16.9921 11.9147 17.8881 10.944 19.0188 10.24C20.1494 9.51467 21.4081 9.152 22.7948 9.152C24.0108 9.152 25.0881 9.45067 26.0268 10.048C26.9654 10.6453 27.6908 11.4773 28.2028 12.544C28.7361 13.6107 29.0028 14.848 29.0028 16.256C29.0028 17.7707 28.6721 19.1467 28.0108 20.384C27.3708 21.6213 26.4854 22.6027 25.3548 23.328C24.2454 24.032 22.9868 24.384 21.5788 24.384ZM22.4748 22.816C23.6694 22.816 24.6188 22.336 25.3228 21.376C26.0268 20.3947 26.3788 19.072 26.3788 17.408C26.3788 16.128 26.1868 14.9973 25.8028 14.016C25.4188 13.0347 24.8854 12.2667 24.2028 11.712C23.5201 11.1573 22.7308 10.88 21.8348 10.88C20.6401 10.88 19.6908 11.3707 18.9868 12.352C18.2828 13.3333 17.9308 14.6667 17.9308 16.352C17.9308 17.632 18.1228 18.7627 18.5068 19.744C18.8908 20.704 19.4241 21.4613 20.1068 22.016C20.7894 22.5493 21.5788 22.816 22.4748 22.816ZM37.9963 24.384C36.6523 24.384 35.4789 24.096 34.4763 23.52C33.4736 22.9227 32.6949 22.1013 32.1403 21.056C31.5856 19.9893 31.3083 18.7413 31.3083 17.312C31.3083 15.776 31.6283 14.4 32.2682 13.184C32.9296 11.9467 33.8149 10.9653 34.9243 10.24C36.0549 9.51467 37.3136 9.152 38.7003 9.152C39.3829 9.152 40.0016 9.20533 40.5563 9.312C41.1323 9.39733 41.5909 9.49333 41.9323 9.6C42.2736 9.70667 42.4443 9.76 42.4443 9.76L42.5403 9.984C42.5403 9.984 42.4869 10.176 42.3803 10.56C42.2949 10.944 42.1989 11.4773 42.0923 12.16C41.9856 12.8213 41.9109 13.568 41.8683 14.4L40.5563 14.496V13.504C40.5563 12.7147 40.3109 12.0853 39.8203 11.616C39.3509 11.1253 38.7216 10.88 37.9323 10.88C36.6309 10.88 35.6283 11.3493 34.9243 12.288C34.2203 13.2053 33.8683 14.5173 33.8683 16.224C33.8683 18.08 34.2523 19.552 35.0203 20.64C35.8096 21.7067 36.8763 22.24 38.2203 22.24C38.8176 22.24 39.3936 22.1547 39.9483 21.984C40.5029 21.792 40.9509 21.6107 41.2923 21.44C41.6549 21.2693 41.8363 21.184 41.8363 21.184L42.0283 21.248L42.3803 22.24C42.3803 22.24 42.2309 22.3467 41.9323 22.56C41.6336 22.7733 41.2496 23.0293 40.7803 23.328C40.3109 23.6053 39.8203 23.8507 39.3083 24.064C38.8176 24.2773 38.3803 24.384 37.9963 24.384ZM55.3103 24.384C54.4569 24.384 53.7849 24.1707 53.2943 23.744C52.8249 23.296 52.5476 22.6453 52.4623 21.792L52.3343 21.76C51.8223 22.272 51.3316 22.72 50.8623 23.104C50.4143 23.4667 50.0089 23.7547 49.6463 23.968C49.3049 24.16 49.0276 24.256 48.8143 24.256C48.0249 24.256 47.3209 24.0853 46.7023 23.744C46.0836 23.4027 45.5929 22.9333 45.2303 22.336C44.8889 21.7387 44.7183 21.056 44.7183 20.288C44.7183 19.6693 44.8676 19.1253 45.1663 18.656C45.4863 18.1867 45.9023 17.8773 46.4143 17.728L52.4943 16.064L52.5263 14.656C52.5263 13.5893 52.2809 12.7573 51.7903 12.16C51.2996 11.5627 50.6063 11.264 49.7103 11.264C49.1129 11.264 48.4836 11.4027 47.8223 11.68C47.1609 11.9573 46.5103 12.352 45.8703 12.864L45.7103 12.768L45.3263 11.392C45.8809 11.072 46.4996 10.7413 47.1823 10.4C47.8649 10.0373 48.5156 9.73867 49.1343 9.504C49.7529 9.26933 50.2223 9.152 50.5423 9.152C51.4809 9.152 52.2809 9.32267 52.9423 9.664C53.6036 9.984 54.1049 10.4533 54.4463 11.072C54.8089 11.6693 54.9903 12.4053 54.9903 13.28C54.9903 13.5573 54.9583 14.0053 54.8943 14.624C54.8516 15.2427 54.7876 15.936 54.7023 16.704C54.6169 17.4507 54.5423 18.176 54.4783 18.88C54.4356 19.584 54.4143 20.1707 54.4143 20.64C54.4143 21.1093 54.5316 21.472 54.7663 21.728C55.0009 21.984 55.3209 22.112 55.7263 22.112C56.0889 22.112 56.4516 22.0267 56.8143 21.856C57.1769 21.664 57.4543 21.4827 57.6463 21.312L58.0943 21.824C57.9236 22.1013 57.6889 22.4213 57.3903 22.784C57.1129 23.1253 56.7929 23.4453 56.4303 23.744C56.0889 24.0427 55.7156 24.256 55.3103 24.384ZM49.3583 22.08C49.7636 22.08 50.2329 21.9413 50.7663 21.664C51.3209 21.3653 51.8223 20.992 52.2703 20.544L52.4303 17.28L48.0783 18.592C47.4596 18.784 47.1503 19.232 47.1503 19.936C47.1503 20.5333 47.3529 21.0453 47.7583 21.472C48.1849 21.8773 48.7183 22.08 49.3583 22.08ZM59.1765 24.384L59.3045 23.072C59.9232 22.9013 60.3498 22.688 60.5845 22.432C60.8405 22.1547 60.9898 21.792 61.0325 21.344C61.0752 20.896 61.0965 20.3413 61.0965 19.68V3.968C61.0965 3.43467 61.0432 3.05067 60.9365 2.816C60.8512 2.56 60.6698 2.4 60.3925 2.336C60.1365 2.272 59.7418 2.272 59.2085 2.336L59.1125 2.272L59.2405 1.184C60.0298 1.07733 60.8192 0.949332 61.6085 0.799999C62.3978 0.650665 63.1872 0.469332 63.9765 0.255999L64.1685 0.671999C64.0832 0.821332 63.9978 1.312 63.9125 2.144C63.8272 2.95467 63.7418 4.032 63.6565 5.376C63.5925 6.69867 63.5285 8.20267 63.4645 9.888C63.4005 11.5733 63.3472 13.3547 63.3045 15.232C63.2832 17.1093 63.2725 18.9867 63.2725 20.864C63.2725 21.504 63.3578 21.9627 63.5285 22.24C63.6992 22.5173 63.9872 22.656 64.3925 22.656L65.5125 22.592L65.5765 22.72L65.3205 24.096C64.9792 24.0747 64.5205 24.0533 63.9445 24.032C63.3898 24.0107 62.8992 24 62.4725 24C62.0885 24 61.5978 24.032 61.0005 24.096C60.4245 24.1813 59.8165 24.2773 59.1765 24.384ZM71.629 24C71.2237 24 70.8077 24.0213 70.381 24.064C69.9543 24.1067 69.5597 24.1493 69.197 24.192C68.8343 24.2347 68.5357 24.2773 68.301 24.32C68.0877 24.3627 67.981 24.384 67.981 24.384L68.173 22.912C69.1757 22.72 69.837 22.4427 70.157 22.08C70.4983 21.696 70.669 21.056 70.669 20.16L70.701 6.72C70.701 6.03733 70.6263 5.57867 70.477 5.344C70.3277 5.10933 70.0077 4.992 69.517 4.992C69.325 4.992 69.0903 5.00267 68.813 5.024C68.557 5.04533 68.429 5.056 68.429 5.056L68.365 4.928L68.589 3.52C68.589 3.52 68.7063 3.53067 68.941 3.552C69.197 3.552 69.517 3.56267 69.901 3.584C70.285 3.584 70.6797 3.59467 71.085 3.616C71.4903 3.616 71.8423 3.616 72.141 3.616C72.3757 3.616 72.653 3.616 72.973 3.616C73.293 3.59467 73.6237 3.584 73.965 3.584C74.3063 3.56267 74.6263 3.552 74.925 3.552C75.2237 3.53067 75.4583 3.52 75.629 3.52C75.821 3.49867 75.917 3.488 75.917 3.488C77.9437 3.488 79.501 3.904 80.589 4.736C81.677 5.568 82.221 6.77333 82.221 8.352C82.221 9.39733 81.901 10.3573 81.261 11.232C80.621 12.0853 79.7037 12.768 78.509 13.28C79.5543 13.4933 80.4397 13.8347 81.165 14.304C81.9117 14.7733 82.477 15.3387 82.861 16C83.2663 16.64 83.469 17.3547 83.469 18.144C83.469 19.2533 83.117 20.2773 82.413 21.216C81.7303 22.1547 80.813 22.912 79.661 23.488C78.5303 24.0427 77.293 24.32 75.949 24.32C75.6077 24.32 75.2557 24.2987 74.893 24.256C74.5517 24.2347 74.2103 24.2027 73.869 24.16C73.5277 24.1173 73.165 24.0747 72.781 24.032C72.4183 24.0107 72.0343 24 71.629 24ZM73.069 14.464L72.941 20.448C72.941 21.2587 73.2183 21.8347 73.773 22.176C74.3277 22.5173 75.2663 22.688 76.589 22.688C77.869 22.688 78.8717 22.336 79.597 21.632C80.3437 20.9067 80.717 19.936 80.717 18.72C80.717 16.352 79.277 14.912 76.397 14.4L73.069 14.464ZM73.133 12.768C73.133 12.768 73.2823 12.7787 73.581 12.8C73.901 12.8213 74.2743 12.8533 74.701 12.896C75.1277 12.9387 75.5223 12.9707 75.885 12.992C76.2477 13.0133 76.493 13.024 76.621 13.024C76.621 13.024 76.7703 12.9707 77.069 12.864C77.3677 12.736 77.7197 12.5333 78.125 12.256C78.5303 11.9573 78.8823 11.5413 79.181 11.008C79.4797 10.4533 79.629 9.74933 79.629 8.896C79.629 7.50933 79.1703 6.496 78.253 5.856C77.3357 5.19467 75.917 4.864 73.997 4.864C73.7837 4.864 73.6343 4.91733 73.549 5.024C73.485 5.10933 73.4423 5.30133 73.421 5.6C73.3783 6.28267 73.3357 7.01867 73.293 7.808C73.2717 8.576 73.2397 9.376 73.197 10.208C73.1757 11.0187 73.1543 11.872 73.133 12.768ZM86.3143 24.384L86.4423 23.072C87.0823 22.9013 87.5409 22.656 87.8183 22.336C88.0956 21.9947 88.2343 21.5467 88.2343 20.992V12.864C88.2343 12.2667 88.1383 11.8293 87.9463 11.552C87.7543 11.2747 87.4556 11.136 87.0503 11.136C86.8796 11.136 86.6983 11.1573 86.5063 11.2C86.3356 11.2427 86.2503 11.264 86.2503 11.264L86.3783 10.08C86.9116 9.99467 87.4449 9.89867 87.9783 9.792C88.5329 9.68533 89.0343 9.58933 89.4823 9.504C89.9303 9.39733 90.2929 9.312 90.5703 9.248C90.8476 9.184 90.9863 9.152 90.9863 9.152L91.1463 9.536C91.0609 9.74933 90.9649 10.2293 90.8583 10.976C90.7729 11.7013 90.6983 12.5973 90.6343 13.664C90.5703 14.7093 90.5169 15.8613 90.4743 17.12C90.4316 18.3573 90.4103 19.6053 90.4103 20.864C90.4103 21.4827 90.4956 21.9413 90.6663 22.24C90.8369 22.5173 91.1249 22.656 91.5303 22.656C91.7223 22.656 91.9569 22.6453 92.2343 22.624C92.5116 22.6027 92.6503 22.592 92.6503 22.592L92.7143 22.72L92.4583 24.096C92.4583 24.096 92.3623 24.0853 92.1703 24.064C91.9996 24.064 91.7649 24.0533 91.4663 24.032C91.1889 24.032 90.8796 24.0213 90.5383 24C90.2183 24 89.9089 24 89.6102 24C89.1623 24 88.6823 24.032 88.1703 24.096C87.6583 24.16 87.2209 24.224 86.8583 24.288C86.4956 24.352 86.3143 24.384 86.3143 24.384ZM89.1302 5.376C88.5969 5.376 88.2023 5.20533 87.9463 4.864C87.6903 4.52267 87.5623 4.14933 87.5623 3.744C87.5623 3.232 87.7436 2.79467 88.1063 2.432C88.4689 2.048 88.9169 1.856 89.4503 1.856C89.9623 1.856 90.3463 2.02667 90.6023 2.368C90.8796 2.688 91.0183 3.06133 91.0183 3.488C91.0183 4 90.8369 4.448 90.4743 4.832C90.1329 5.19467 89.6849 5.376 89.1302 5.376ZM95.0895 23.264L103.794 10.752L99.7935 10.944C99.1108 10.9867 98.5668 11.104 98.1615 11.296C97.7562 11.4667 97.4575 11.7547 97.2655 12.16C97.0948 12.544 96.9668 13.0987 96.8815 13.824L95.6335 14.016C95.6335 14.016 95.6442 13.8773 95.6655 13.6C95.7082 13.3013 95.7508 12.928 95.7935 12.48C95.8362 12.0107 95.8788 11.5093 95.9215 10.976C95.9642 10.4213 95.9855 9.888 95.9855 9.376L96.1775 9.216L100.274 9.472L106.994 9.632L107.25 10.304C105.735 12.2453 104.338 14.0907 103.058 15.84C101.799 17.5893 100.732 19.0827 99.8575 20.32C99.0042 21.5573 98.4175 22.4107 98.0975 22.88L102.834 22.592C103.687 22.528 104.348 22.1973 104.818 21.6C105.287 20.9813 105.628 20.0107 105.842 18.688L107.122 18.528C107.122 18.528 107.09 18.688 107.026 19.008C106.983 19.328 106.919 19.744 106.834 20.256C106.77 20.7467 106.706 21.3013 106.642 21.92C106.599 22.5173 106.578 23.104 106.578 23.68L106.066 24.192L97.0735 23.904L95.4095 24.064L95.0895 23.264Z"
        fill="black" />
</svg>