<svg width="60" height="60" viewBox="0 0 60 60" fill="none" xmlns="http://www.w3.org/2000/svg">
    <rect width="60" height="60" rx="10" fill="#FFE0EB" />
    <g clip-path="url(#clip0_15782_2)">
        <path
            d="M32.4923 33.3372C36.6873 33.3372 40.1001 29.8971 40.1001 25.6686C40.1001 21.4402 36.6873 18 32.4923 18C28.2974 18 24.8845 21.4401 24.8845 25.6686C24.8845 29.897 28.2974 33.3372 32.4923 33.3372ZM30.0477 28.0616C30.269 27.7233 30.7227 27.6283 31.0609 27.8497C31.5539 28.1722 31.7398 28.2019 32.3903 28.1973C33.0252 28.1931 33.3935 27.7199 33.4671 27.282C33.5029 27.069 33.5167 26.5489 32.872 26.321C32.1159 26.0536 31.342 25.7481 30.8037 25.3259C30.2653 24.9036 30.0188 24.1746 30.1604 23.4236C30.3138 22.6094 30.8818 21.9612 31.6427 21.7321C31.6496 21.73 31.6563 21.7283 31.6632 21.7263V21.4488C31.6632 21.0446 31.9909 20.7168 32.3952 20.7168C32.7994 20.7168 33.1271 21.0446 33.1271 21.4488V21.6802C33.6243 21.7989 33.9715 22.0263 34.1125 22.1317C34.4363 22.3738 34.5025 22.8324 34.2605 23.1563C34.0185 23.4801 33.5598 23.5464 33.236 23.3042C33.086 23.1921 32.6714 22.951 32.0649 23.1338C31.7106 23.2405 31.6187 23.5901 31.5989 23.6947C31.5603 23.9002 31.6037 24.0928 31.7071 24.1739C32.0803 24.4666 32.7521 24.7258 33.3599 24.9406C34.4808 25.3368 35.104 26.3753 34.9108 27.5247C34.816 28.0887 34.5323 28.6119 34.1119 28.9981C33.8256 29.2613 33.4923 29.4488 33.1271 29.556V29.8883C33.1271 30.2926 32.7994 30.6203 32.3952 30.6203C31.9909 30.6203 31.6632 30.2926 31.6632 29.8883V29.629C31.1899 29.5716 30.7925 29.4236 30.2595 29.0748C29.9212 28.8535 29.8264 28.3999 30.0477 28.0616Z"
            fill="#FF82AC" />
        <path
            d="M20.7745 35.7967H19.1054C18.7012 35.7967 18.3734 36.1245 18.3734 36.5287V42.267C18.3734 42.6712 18.7012 42.999 19.1054 42.999H20.7745V35.7967H20.7745Z"
            fill="#FF82AC" />
        <path
            d="M42.4119 35.7456C41.0399 34.3736 38.8075 34.3736 37.4356 35.7456L35.2429 37.9383L34.3441 38.8371C33.9809 39.2003 33.4883 39.4044 32.9746 39.4044H28.6044C28.2098 39.4044 27.8701 39.101 27.8515 38.7068C27.8317 38.2858 28.1671 37.9383 28.5837 37.9383H33.0257C33.9188 37.9383 34.6934 37.3025 34.847 36.4227C34.8823 36.2206 34.9006 36.0129 34.9006 35.8009C34.9007 35.3959 34.5726 35.0673 34.1676 35.0673H31.7337C30.9383 35.0673 30.1744 34.7065 29.3657 34.3244C28.5174 33.9237 27.6403 33.5094 26.6147 33.4411C25.7176 33.3814 24.8186 33.4796 23.9423 33.7326C23.004 34.0036 22.3296 34.8371 22.2478 35.7996C22.2447 35.7993 22.2415 35.7993 22.2383 35.7991V42.9965L34.8493 43C35.7164 43 36.5316 42.6623 37.1448 42.0491L42.4117 36.7822C42.6981 36.4961 42.6981 36.0319 42.4119 35.7456Z"
            fill="#FF82AC" />
    </g>
    <defs>
        <clipPath id="clip0_15782_2">
            <rect width="25" height="25" fill="white" transform="translate(18 18)" />
        </clipPath>
    </defs>
</svg>