<svg width="25" height="25" viewBox="0 0 25 25" fill="none" xmlns="http://www.w3.org/2000/svg">
    <path
        d="M22.6146 9.07291C23.9167 7.77083 23.3229 6.25 22.6146 5.51041L19.4896 2.38541C18.1771 1.08333 16.6667 1.67708 15.9271 2.38541L14.1562 4.16666H11.4583C9.47917 4.16666 8.33333 5.20833 7.75 6.40625L3.125 11.0312V15.1979L2.38541 15.9271C1.08333 17.2396 1.67708 18.75 2.38541 19.4896L5.51041 22.6146C6.07291 23.1771 6.67708 23.3854 7.25 23.3854C7.98958 23.3854 8.66666 23.0208 9.07291 22.6146L11.8854 19.7917H15.625C17.3958 19.7917 18.2917 18.6875 18.6146 17.6042C19.7917 17.2917 20.4375 16.3958 20.6979 15.5208C22.3125 15.1042 22.9167 13.5729 22.9167 12.5V9.375H22.3021L22.6146 9.07291ZM20.8333 12.5C20.8333 12.9687 20.6354 13.5417 19.7917 13.5417H18.75V14.5833C18.75 15.0521 18.5521 15.625 17.7083 15.625H16.6667V16.6667C16.6667 17.1354 16.4687 17.7083 15.625 17.7083H11.0312L7.61458 21.125C7.29166 21.4271 7.10416 21.25 6.98958 21.1354L3.875 18.0312C3.57291 17.7083 3.75 17.5208 3.86458 17.4062L5.20833 16.0521V11.8854L7.29166 9.80208V11.4583C7.29166 12.7187 8.125 14.5833 10.4167 14.5833C12.7083 14.5833 13.5417 12.7187 13.5417 11.4583H20.8333V12.5ZM21.1354 7.59375L19.3646 9.375H11.4583V11.4583C11.4583 11.9271 11.2604 12.5 10.4167 12.5C9.57292 12.5 9.375 11.9271 9.375 11.4583V8.33333C9.375 7.85416 9.55208 6.25 11.4583 6.25H15.0104L17.3854 3.875C17.7083 3.57291 17.8958 3.75 18.0104 3.86458L21.125 6.96875C21.4271 7.29166 21.25 7.47916 21.1354 7.59375Z"
        fill="#B1B1B1" />
</svg>