<svg width="23" height="21" viewBox="0 0 23 21" fill="none" xmlns="http://www.w3.org/2000/svg">
    <path
        d="M21.9949 5.35732C21.8431 5.18702 21.657 5.05084 21.4488 4.95775C21.2405 4.86467 21.0149 4.81681 20.7869 4.81732H15.9949C15.9949 3.54429 15.4892 2.32339 14.589 1.42322C13.6888 0.523046 12.4679 0.017334 11.1949 0.017334C9.92184 0.017334 8.70094 0.523046 7.80077 1.42322C6.9006 2.32339 6.39489 3.54429 6.39489 4.81732H1.60289C1.37616 4.81794 1.15209 4.86634 0.945325 4.95939C0.738556 5.05243 0.553728 5.18803 0.402897 5.35732C0.253326 5.52599 0.141085 5.72436 0.0735301 5.93943C0.00597534 6.1545 -0.0153684 6.38142 0.0108977 6.60532L1.43689 18.6053C1.48315 18.9963 1.67193 19.3565 1.96712 19.617C2.26232 19.8775 2.6432 20.02 3.03689 20.0173H19.3619C19.7556 20.02 20.1364 19.8775 20.4316 19.617C20.7268 19.3565 20.9156 18.9963 20.9619 18.6053L22.3879 6.60532C22.414 6.38135 22.3925 6.15439 22.3248 5.93931C22.257 5.72424 22.1446 5.52591 21.9949 5.35732ZM7.99488 8.81732C7.99488 9.02949 7.9106 9.23297 7.76057 9.383C7.61054 9.53303 7.40706 9.61732 7.19488 9.61732C6.98271 9.61732 6.77923 9.53303 6.6292 9.383C6.47917 9.23297 6.39489 9.02949 6.39489 8.81732V7.21732C6.39489 7.00515 6.47917 6.80166 6.6292 6.65164C6.77923 6.50161 6.98271 6.41732 7.19488 6.41732C7.40706 6.41732 7.61054 6.50161 7.76057 6.65164C7.9106 6.80166 7.99488 7.00515 7.99488 7.21732V8.81732ZM11.1949 1.61733C12.0436 1.61733 12.8575 1.95447 13.4576 2.55459C14.0577 3.1547 14.3949 3.96863 14.3949 4.81732H7.99488C7.99488 3.96863 8.33202 3.1547 8.93214 2.55459C9.53225 1.95447 10.3462 1.61733 11.1949 1.61733ZM15.9949 8.81732C15.9949 9.02949 15.9106 9.23297 15.7606 9.383C15.6105 9.53303 15.407 9.61732 15.1949 9.61732C14.9827 9.61732 14.7792 9.53303 14.6292 9.383C14.4792 9.23297 14.3949 9.02949 14.3949 8.81732V7.21732C14.3949 7.00515 14.4792 6.80166 14.6292 6.65164C14.7792 6.50161 14.9827 6.41732 15.1949 6.41732C15.407 6.41732 15.6105 6.50161 15.7606 6.65164C15.9106 6.80166 15.9949 7.00515 15.9949 7.21732V8.81732Z"
        fill="#B1B1B1" />
</svg>