<svg width="25" height="25" viewBox="0 0 25 25" fill="none" xmlns="http://www.w3.org/2000/svg">
    <path
        d="M22.6445 17.0977C22.4704 18.4209 21.8205 19.6356 20.8163 20.5147C19.8121 21.3939 18.5222 21.8774 17.1875 21.875C9.4336 21.875 3.12501 15.5664 3.12501 7.8125C3.12262 6.47782 3.60615 5.18791 4.4853 4.18369C5.36444 3.17946 6.57908 2.5296 7.90235 2.35547C8.23697 2.31461 8.57584 2.38307 8.86836 2.55062C9.16087 2.71818 9.39136 2.97585 9.5254 3.28516L11.5879 7.88965V7.90137C11.6905 8.13814 11.7329 8.39664 11.7113 8.65379C11.6896 8.91093 11.6046 9.15871 11.4639 9.375C11.4463 9.40137 11.4277 9.42578 11.4082 9.4502L9.37501 11.8604C10.1065 13.3467 11.6611 14.8877 13.167 15.6211L15.544 13.5986C15.5673 13.579 15.5918 13.5608 15.6172 13.5439C15.8333 13.3998 16.0819 13.3118 16.3406 13.288C16.5993 13.2641 16.8598 13.3051 17.0986 13.4072L17.1113 13.4131L21.7119 15.4746C22.0218 15.6082 22.2801 15.8385 22.4482 16.131C22.6163 16.4236 22.6852 16.7627 22.6445 17.0977Z"
        fill="#B1B1B1" />
</svg>