<svg width="24" height="24" viewBox="0 0 24 24" fill="none" xmlns="http://www.w3.org/2000/svg">
    <path fill-rule="evenodd" clip-rule="evenodd"
        d="M17.986 5.424C14.0077 4.97936 9.99229 4.97936 6.01401 5.424C5.95302 5.43099 5.89502 5.45422 5.84607 5.49127C5.79712 5.52832 5.75901 5.57783 5.73572 5.63463C5.71243 5.69143 5.70481 5.75344 5.71365 5.81419C5.7225 5.87494 5.74748 5.9322 5.78601 5.98L9.30301 10.328C10.5628 11.8854 11.25 13.8279 11.25 15.831V18.72L12.75 19.82V15.83C12.7502 13.8272 13.4375 11.8851 14.697 10.328L18.214 5.98C18.2525 5.9322 18.2775 5.87494 18.2864 5.81419C18.2952 5.75344 18.2876 5.69143 18.2643 5.63463C18.241 5.57783 18.2029 5.52832 18.1539 5.49127C18.105 5.45422 18.047 5.43099 17.986 5.424ZM5.84801 3.933C9.93694 3.47599 14.0641 3.47599 18.153 3.933C19.599 4.095 20.296 5.791 19.381 6.923L15.864 11.271C14.8198 12.5614 14.2501 14.1711 14.25 15.831V21.3C14.2501 21.4387 14.2117 21.5747 14.1392 21.6929C14.0666 21.8111 13.9627 21.9069 13.839 21.9696C13.7153 22.0323 13.5766 22.0594 13.4384 22.048C13.3001 22.0366 13.1678 21.9871 13.056 21.905L10.056 19.705C9.96108 19.6353 9.8839 19.5442 9.83074 19.439C9.77758 19.3339 9.74992 19.2178 9.75001 19.1V15.83C9.75001 14.17 9.18001 12.561 8.13701 11.27L4.62001 6.924C3.70401 5.792 4.40001 4.095 5.84801 3.933Z"
        fill="#718EBF" />
</svg>