<svg width="49" height="48" viewBox="0 0 49 48" fill="none" xmlns="http://www.w3.org/2000/svg">
    <circle cx="28" cy="24" r="21" fill="white" />
    <path
        d="M18.732 36.632C18.5827 36.6507 18.424 36.66 18.256 36.66C18.1067 36.66 17.9573 36.66 17.808 36.66C16.8 36.66 15.7453 36.5573 14.644 36.352C13.5427 36.1653 12.4507 35.9133 11.368 35.596C10.304 35.2787 9.30533 34.9333 8.372 34.56L6.02 33.608C5.83333 33.7013 5.64667 33.7853 5.46 33.86C5.292 33.9347 5.10533 34.0093 4.9 34.084C4.284 34.2893 3.56533 34.392 2.744 34.392C2.44533 34.392 2.156 34.364 1.876 34.308C1.596 34.2707 1.36267 34.2053 1.176 34.112C0.970667 34 0.802667 33.8413 0.672 33.636C0.56 33.412 0.504 33.1973 0.504 32.992C0.504 32.7867 0.56 32.6187 0.672 32.488C0.746667 32.4133 0.821333 32.376 0.896 32.376C0.970667 32.3573 0.989333 32.3947 0.952 32.488C0.896 32.7867 1.01733 33.0573 1.316 33.3C1.63333 33.524 1.92267 33.6733 2.184 33.748C2.42667 33.8227 2.72533 33.86 3.08 33.86C3.60267 33.86 4.09733 33.7667 4.564 33.58L5.208 33.3C4.77867 33.1133 4.34 32.9453 3.892 32.796C3.444 32.628 3.03333 32.4787 2.66 32.348C2.38 32.2547 2.016 32.1613 1.568 32.068C1.13867 31.956 0.793333 31.928 0.532 31.984H0.504C0.448 31.984 0.410667 31.956 0.392 31.9C0.373333 31.844 0.401333 31.788 0.476 31.732C0.569333 31.6573 0.756 31.62 1.036 31.62C1.33467 31.62 1.66133 31.6667 2.016 31.76C2.37067 31.8347 2.632 31.8907 2.8 31.928L5.936 32.796C6.384 32.4227 6.82267 31.984 7.252 31.48C7.68133 30.976 8.08267 30.4347 8.456 29.856C9.128 28.8293 9.78133 27.6533 10.416 26.328C11.0693 24.984 11.7413 23.6213 12.432 22.24C13.1413 20.84 13.916 19.5707 14.756 18.432C15.1853 17.8347 15.6893 17.2467 16.268 16.668C16.8467 16.0893 17.4813 15.6227 18.172 15.268C18.5827 15.0627 19.0027 14.8947 19.432 14.764C19.8613 14.6333 20.3093 14.568 20.776 14.568C21.7467 14.568 22.484 14.82 22.988 15.324C23.492 15.828 23.744 16.4627 23.744 17.228C23.744 17.4147 23.7253 17.6107 23.688 17.816C23.6693 18.0213 23.6227 18.2267 23.548 18.432C23.268 19.3467 22.7547 20.1307 22.008 20.784C21.2613 21.4187 20.44 21.8947 19.544 22.212C19.432 22.2493 19.3667 22.268 19.348 22.268C19.2547 22.268 19.208 22.2307 19.208 22.156C19.208 22.044 19.2827 21.96 19.432 21.904C20.272 21.5867 21.028 21.092 21.7 20.42C22.3907 19.748 22.82 18.9547 22.988 18.04C23.0067 17.928 23.016 17.8253 23.016 17.732C23.0347 17.62 23.044 17.5267 23.044 17.452C23.044 16.6867 22.7733 16.1267 22.232 15.772C21.7093 15.3987 21.1027 15.212 20.412 15.212C19.7027 15.212 19.0493 15.38 18.452 15.716C17.7987 16.0893 17.1547 16.7147 16.52 17.592C15.904 18.4507 15.2973 19.4493 14.7 20.588C14.1213 21.708 13.552 22.8653 12.992 24.06C12.4507 25.236 11.9187 26.3467 11.396 27.392C10.892 28.4373 10.3973 29.3053 9.912 29.996C9.50133 30.5933 9.044 31.1533 8.54 31.676C8.036 32.1987 7.49467 32.6653 6.916 33.076L8.68 33.58C9.98667 33.9533 11.4053 34.308 12.936 34.644C14.4667 34.9987 15.9227 35.176 17.304 35.176C17.9387 35.176 18.5453 35.1293 19.124 35.036C19.7027 34.9427 20.2253 34.784 20.692 34.56C21.4573 34.2053 22.0733 33.72 22.54 33.104C23.0067 32.488 23.24 31.8347 23.24 31.144C23.24 30.6587 23.1093 30.1827 22.848 29.716C22.6053 29.2493 22.2133 28.8107 21.672 28.4C21.3733 28.176 21.0653 27.98 20.748 27.812C20.4307 27.6253 20.1413 27.4853 19.88 27.392C19.7493 27.336 19.684 27.28 19.684 27.224C19.684 27.1867 19.712 27.1587 19.768 27.14C19.8427 27.1213 19.8893 27.112 19.908 27.112C20.5427 27.2613 21.1773 27.5507 21.812 27.98C22.7827 28.6707 23.436 29.4733 23.772 30.388C23.9587 30.8733 24.052 31.3773 24.052 31.9C24.052 32.6467 23.8653 33.356 23.492 34.028C23.1187 34.7 22.6053 35.2413 21.952 35.652C21.0187 36.212 19.9453 36.5387 18.732 36.632ZM24.0006 36.548C23.7953 36.548 23.4966 36.52 23.1046 36.464C22.7126 36.408 22.3579 36.2867 22.0406 36.1C21.7046 35.9133 21.5366 35.6147 21.5366 35.204C21.5366 34.98 21.5926 34.8027 21.7046 34.672C21.7793 34.5787 21.8539 34.532 21.9286 34.532C22.0033 34.532 22.0313 34.5787 22.0126 34.672C21.9379 34.952 22.0406 35.2133 22.3206 35.456C22.5819 35.7173 22.8433 35.8853 23.1046 35.96C23.4033 36.0347 23.7206 36.072 24.0566 36.072C24.7846 36.072 25.4566 35.8853 26.0726 35.512C26.7073 35.1387 27.2673 34.672 27.7526 34.112C27.0619 33.6267 26.4459 33.02 25.9046 32.292C25.3819 31.564 25.1206 30.7427 25.1206 29.828C25.1206 29.548 25.1486 29.268 25.2046 28.988C25.4099 27.98 25.9233 27.196 26.7446 26.636C27.1739 26.3373 27.6593 26.188 28.2006 26.188C28.5553 26.188 28.8726 26.2533 29.1526 26.384C29.4513 26.496 29.6566 26.636 29.7686 26.804V26.832C29.7686 26.9067 29.7313 26.9813 29.6566 27.056C29.5819 27.112 29.5259 27.1213 29.4886 27.084C29.3579 26.8413 29.1059 26.72 28.7326 26.72C28.5273 26.72 28.3033 26.7667 28.0606 26.86C27.8179 26.9347 27.5939 27.0747 27.3886 27.28C27.1459 27.4853 26.9499 27.7467 26.8006 28.064C26.6513 28.3627 26.5299 28.68 26.4366 29.016C26.3246 29.408 26.2686 29.7907 26.2686 30.164C26.2686 30.9107 26.4459 31.5827 26.8006 32.18C27.1553 32.7773 27.5939 33.2907 28.1166 33.72C28.7886 32.88 29.4139 31.928 29.9926 30.864C30.5899 29.8 31.1313 28.764 31.6166 27.756C32.1206 26.7293 32.5686 25.8707 32.9606 25.18C34.4166 22.6227 35.8166 20.644 37.1606 19.244C38.5233 17.8253 39.7833 17.116 40.9406 17.116C41.1833 17.116 41.4166 17.144 41.6406 17.2C41.7153 17.2187 41.7339 17.2653 41.6966 17.34C41.6593 17.4147 41.6033 17.4427 41.5286 17.424C41.4539 17.4053 41.3793 17.396 41.3046 17.396C41.2486 17.3773 41.1833 17.368 41.1086 17.368C40.5486 17.368 39.9419 17.648 39.2886 18.208C38.6353 18.7493 37.9633 19.5053 37.2726 20.476C36.5819 21.428 35.8913 22.5293 35.2006 23.78C35.4433 23.6307 35.7233 23.528 36.0406 23.472C36.3766 23.3973 36.7219 23.36 37.0766 23.36C37.6179 23.36 38.1593 23.416 38.7006 23.528C39.2606 23.64 39.7273 23.7707 40.1006 23.92C40.9406 23.2667 41.6126 22.4547 42.1166 21.484C42.6393 20.5133 42.9006 19.58 42.9006 18.684C42.9006 17.788 42.6673 17.0693 42.2006 16.528C41.7339 15.9867 41.1459 15.576 40.4366 15.296C39.7273 15.016 38.9806 14.8293 38.1966 14.736C37.4126 14.6427 36.6939 14.596 36.0406 14.596C34.9953 14.596 33.9499 14.708 32.9046 14.932C31.8779 15.156 30.9259 15.4827 30.0486 15.912C29.1713 16.3227 28.4246 16.8267 27.8086 17.424C27.3046 17.9093 26.8286 18.5533 26.3806 19.356C25.9326 20.1587 25.7086 20.9707 25.7086 21.792C25.7086 22.128 25.7646 22.4547 25.8766 22.772C26.0633 23.2947 26.3993 23.7053 26.8846 24.004C27.3699 24.284 27.9299 24.424 28.5646 24.424C28.8073 24.424 29.0593 24.396 29.3206 24.34C29.5819 24.284 29.8433 24.2187 30.1046 24.144H30.1606C30.2166 24.144 30.2446 24.172 30.2446 24.228C30.2446 24.3027 30.1979 24.3587 30.1046 24.396C29.6006 24.564 29.0779 24.648 28.5366 24.648C27.9019 24.648 27.3046 24.5267 26.7446 24.284C26.1846 24.0227 25.7273 23.64 25.3726 23.136C25.0179 22.632 24.8406 22.0067 24.8406 21.26C24.8406 20.6813 24.9153 20.1493 25.0646 19.664C25.2326 19.1787 25.4566 18.7213 25.7366 18.292C26.3526 17.3773 27.2206 16.6213 28.3406 16.024C29.4606 15.4267 30.7019 14.9787 32.0646 14.68C33.4273 14.3813 34.7806 14.232 36.1246 14.232C36.7593 14.232 37.4873 14.2787 38.3086 14.372C39.1486 14.4653 39.9793 14.6427 40.8006 14.904C41.6219 15.1467 42.3406 15.5013 42.9566 15.968C43.5913 16.4347 44.0299 17.032 44.2726 17.76C44.3846 18.1147 44.4406 18.4973 44.4406 18.908C44.4406 19.6547 44.2539 20.4107 43.8806 21.176C43.5073 21.9227 43.0406 22.576 42.4806 23.136C42.0513 23.6027 41.5286 24.0133 40.9126 24.368C41.7899 24.7973 42.4433 25.3853 42.8726 26.132C43.3019 26.86 43.5166 27.644 43.5166 28.484C43.5166 29.3613 43.2926 30.2387 42.8446 31.116C42.3966 31.9933 41.7339 32.7867 40.8566 33.496C39.9979 34.2053 38.9246 34.7467 37.6366 35.12C37.0393 35.288 36.3953 35.4187 35.7046 35.512C35.0326 35.6053 34.3419 35.652 33.6326 35.652C32.9046 35.652 32.1766 35.596 31.4486 35.484C30.7206 35.372 30.0206 35.1947 29.3486 34.952C29.2366 34.9147 29.1153 34.868 28.9846 34.812C28.8539 34.756 28.7326 34.6907 28.6206 34.616C27.6126 35.512 26.5206 36.1 25.3446 36.38C24.8966 36.492 24.4486 36.548 24.0006 36.548ZM36.3486 25.432C36.9459 25.432 37.5153 25.3387 38.0566 25.152C38.6166 24.9467 39.1393 24.6667 39.6246 24.312C39.2699 24.088 38.8686 23.9387 38.4206 23.864C37.9726 23.7707 37.4593 23.724 36.8806 23.724C36.3393 23.724 35.9099 23.836 35.5926 24.06C35.2753 24.284 35.1166 24.5173 35.1166 24.76C35.1166 24.9467 35.2099 25.1053 35.3966 25.236C35.6019 25.3667 35.9193 25.432 36.3486 25.432ZM37.4966 34.588C38.4486 34.1773 39.2419 33.636 39.8766 32.964C40.5299 32.2733 41.0246 31.5173 41.3606 30.696C41.6966 29.8747 41.8646 29.072 41.8646 28.288C41.8646 27.5787 41.7246 26.916 41.4446 26.3C41.1833 25.684 40.7726 25.1707 40.2126 24.76C39.6339 25.04 38.9993 25.2733 38.3086 25.46C37.6366 25.6467 36.9459 25.74 36.2366 25.74C35.7139 25.74 35.3219 25.6747 35.0606 25.544C34.7993 25.3947 34.6219 25.2453 34.5286 25.096C34.2859 25.5627 34.0526 26.048 33.8286 26.552C33.6046 27.056 33.3713 27.56 33.1286 28.064C32.6433 29.072 32.0553 30.136 31.3646 31.256C30.6926 32.376 29.8993 33.3747 28.9846 34.252C29.0966 34.3267 29.2086 34.3827 29.3206 34.42C29.4326 34.476 29.5446 34.5227 29.6566 34.56C30.2726 34.784 30.9259 34.952 31.6166 35.064C32.3073 35.176 32.9979 35.232 33.6886 35.232C34.4166 35.232 35.1073 35.1667 35.7606 35.036C36.4326 34.924 37.0113 34.7747 37.4966 34.588Z"
        fill="#0157AC" />
</svg>