<svg width="25" height="25" viewBox="0 0 25 25" fill="none" xmlns="http://www.w3.org/2000/svg">
    <path
        d="M19.8646 5.13542C18.1554 3.4151 15.8996 2.34501 13.4861 2.10963C11.0725 1.87424 8.65245 2.48831 6.64311 3.84597C4.63377 5.20363 3.16108 7.2198 2.47892 9.54689C1.79676 11.874 1.94789 14.3661 2.90625 16.5937C3.00614 16.8008 3.03891 17.0339 3 17.2604L2.08333 21.6667C2.04802 21.8356 2.05523 22.0107 2.10432 22.1761C2.15341 22.3416 2.24285 22.4922 2.36458 22.6146C2.46438 22.7137 2.5832 22.7915 2.71389 22.8434C2.84458 22.8953 2.98442 22.9202 3.125 22.9167H3.33333L7.79167 22.0208C8.01826 21.9936 8.24804 22.0259 8.45833 22.1146C10.6859 23.0729 13.1781 23.2241 15.5052 22.5419C17.8323 21.8598 19.8485 20.3871 21.2061 18.3777C22.5638 16.3684 23.1778 13.9483 22.9425 11.5348C22.7071 9.12121 21.637 6.8654 19.9167 5.15625L19.8646 5.13542ZM8.33333 13.5417C8.12731 13.5417 7.92592 13.4806 7.75462 13.3661C7.58331 13.2517 7.4498 13.089 7.37096 12.8986C7.29212 12.7083 7.27149 12.4988 7.31168 12.2968C7.35188 12.0947 7.45109 11.9091 7.59677 11.7634C7.74244 11.6178 7.92805 11.5185 8.13012 11.4783C8.33218 11.4382 8.54162 11.4588 8.73196 11.5376C8.9223 11.6165 9.08499 11.75 9.19945 11.9213C9.31391 12.0926 9.375 12.294 9.375 12.5C9.375 12.7763 9.26525 13.0412 9.0699 13.2366C8.87455 13.4319 8.6096 13.5417 8.33333 13.5417ZM12.5 13.5417C12.294 13.5417 12.0926 13.4806 11.9213 13.3661C11.75 13.2517 11.6165 13.089 11.5376 12.8986C11.4588 12.7083 11.4382 12.4988 11.4784 12.2968C11.5185 12.0947 11.6178 11.9091 11.7634 11.7634C11.9091 11.6178 12.0947 11.5185 12.2968 11.4783C12.4988 11.4382 12.7083 11.4588 12.8986 11.5376C13.089 11.6165 13.2517 11.75 13.3661 11.9213C13.4806 12.0926 13.5417 12.294 13.5417 12.5C13.5417 12.7763 13.4319 13.0412 13.2366 13.2366C13.0412 13.4319 12.7763 13.5417 12.5 13.5417ZM16.6667 13.5417C16.4606 13.5417 16.2593 13.4806 16.0879 13.3661C15.9166 13.2517 15.7831 13.089 15.7043 12.8986C15.6255 12.7083 15.6048 12.4988 15.645 12.2968C15.6852 12.0947 15.7844 11.9091 15.9301 11.7634C16.0758 11.6178 16.2614 11.5185 16.4634 11.4783C16.6655 11.4382 16.875 11.4588 17.0653 11.5376C17.2556 11.6165 17.4183 11.75 17.5328 11.9213C17.6472 12.0926 17.7083 12.294 17.7083 12.5C17.7083 12.7763 17.5986 13.0412 17.4032 13.2366C17.2079 13.4319 16.9429 13.5417 16.6667 13.5417Z"
        fill="#B1B1B1" />
</svg>